<?xml version="1.0" encoding="UTF-8"?>
<svg version="1.1" xmlns="http://www.w3.org/2000/svg" width="1024" height="1024">
<path d="M0 0 C337.92 0 675.84 0 1024 0 C1024 337.92 1024 675.84 1024 1024 C686.08 1024 348.16 1024 0 1024 C0 686.08 0 348.16 0 0 Z " fill="#FDFDFD" transform="translate(0,0)"/>
<path d="M0 0 C5.61069933 5.27036228 9.16135414 11.42053112 13 18 C13.62132812 19.06347656 14.24265625 20.12695312 14.8828125 21.22265625 C18.04121737 26.79760811 18.04121737 26.79760811 19 29 C18.67 29.66 18.34 30.32 18 31 C15.36 30.01 12.72 29.02 10 28 C10.04640625 28.69222656 10.0928125 29.38445312 10.140625 30.09765625 C11.10077128 56.12447872 -3.85400388 79.04666073 -20.671875 97.5234375 C-23.67224714 100.71510854 -26.77723808 103.7903478 -29.8984375 106.86328125 C-31.78597461 108.78239426 -33.523274 110.74978544 -35.25 112.8125 C-38.71017326 116.84146886 -42.58140992 120.35973691 -46.50952148 123.91821289 C-54.2755434 131.00026708 -61.61335504 138.526798 -69 146 C-75.80514047 142.70487935 -80.19689803 137.70281848 -85 132 C-88.95295511 132.56340969 -90.90345158 134.48853523 -93.8125 137.125 C-106.78788796 147.97525784 -122.6833652 152.73385667 -139.5390625 152.3515625 C-145.7830085 151.71730162 -149.96872902 149.62501678 -154.8125 145.75 C-159.58204071 139.75400597 -161.69946227 134.76466671 -161.38671875 127 C-160.32943506 118.79804167 -157.75270899 111.23950331 -152.953125 104.48828125 C-151.82023182 103.01385013 -151.82023182 103.01385013 -152 101 C-152.763125 101.495 -153.52625 101.99 -154.3125 102.5 C-157 104 -157 104 -160 104 C-158.67424851 78.21641936 -147.4200574 55.94405131 -128.39794922 38.53369141 C-116.34275863 27.93952008 -102.58438429 20.87569766 -87 17 C-86.15953125 16.77570313 -85.3190625 16.55140625 -84.453125 16.3203125 C-68.35534786 12.67081644 -48.34721419 13.59460739 -33.63671875 21.328125 C-32.82654297 21.66070312 -32.82654297 21.66070312 -32 22 C-31.01 21.505 -31.01 21.505 -30 21 C-30.33 20.34 -30.66 19.68 -31 19 C-22.84034058 21.97244736 -16.16027102 27.06588581 -11 34 C-10.34 34.66 -9.68 35.32 -9 36 C-8.34 32.7 -7.68 29.4 -7 26 C-9.31 26.33 -11.62 26.66 -14 27 C-9.75990705 17.72345147 -5.5644598 8.57854219 0 0 Z " fill="#F6F8F7" transform="translate(392,401)"/>
<path d="M0 0 C5.61069933 5.27036228 9.16135414 11.42053112 13 18 C13.62132812 19.06347656 14.24265625 20.12695312 14.8828125 21.22265625 C18.04121737 26.79760811 18.04121737 26.79760811 19 29 C18.67 29.66 18.34 30.32 18 31 C15.36 30.01 12.72 29.02 10 28 C10.04640625 28.69222656 10.0928125 29.38445312 10.140625 30.09765625 C11.10077128 56.12447872 -3.85400388 79.04666073 -20.671875 97.5234375 C-23.67224714 100.71510854 -26.77723808 103.7903478 -29.8984375 106.86328125 C-31.78597461 108.78239426 -33.523274 110.74978544 -35.25 112.8125 C-38.71017326 116.84146886 -42.58140992 120.35973691 -46.50952148 123.91821289 C-54.2755434 131.00026708 -61.61335504 138.526798 -69 146 C-75.80514047 142.70487935 -80.19689803 137.70281848 -85 132 C-88.95295511 132.56340969 -90.90345158 134.48853523 -93.8125 137.125 C-106.78788796 147.97525784 -122.6833652 152.73385667 -139.5390625 152.3515625 C-145.7830085 151.71730162 -149.96872902 149.62501678 -154.8125 145.75 C-159.58309096 139.75268566 -161.72433969 134.74797324 -161.37109375 126.9765625 C-159.50908133 112.04126288 -151.28994456 99.65389758 -141 89 C-141 92.13736689 -141.42877337 93.13645291 -142.875 95.8125 C-146.89576968 103.69720083 -148.51532362 111.35862068 -146.5 120.19140625 C-144.66752853 125.01205564 -141.5234653 127.73826735 -137 130 C-125.6555221 130.69409544 -115.64593798 130.3510605 -105 126 C-104.38592285 125.75862305 -103.7718457 125.51724609 -103.13916016 125.26855469 C-73.21064617 113.43410126 -38.74712548 90.26215008 -24.37890625 60.66015625 C-20.25424378 51.02036435 -17.81657332 41.88355897 -21.75 31.6875 C-23.47646784 27.82144523 -25.49114002 24.4048814 -28 21 C-20.9422637 23.20554259 -15.2740276 28.08211564 -11 34 C-10.34 34.66 -9.68 35.32 -9 36 C-8.34 32.7 -7.68 29.4 -7 26 C-9.31 26.33 -11.62 26.66 -14 27 C-9.75990705 17.72345147 -5.5644598 8.57854219 0 0 Z " fill="#214468" transform="translate(392,401)"/>
<path d="M0 0 C3.21874455 1.6579571 5.35699725 3.7139945 7 7 C7.08510205 8.9593604 7.10717656 10.92162794 7.09765625 12.8828125 C7.09515869 13.93355957 7.09266113 14.98430664 7.09008789 16.06689453 C7.08098389 17.40606934 7.07187988 18.74524414 7.0625 20.125 C7.041875 24.37375 7.02125 28.6225 7 33 C-2.9 33 -12.8 33 -23 33 C-23 38.28 -23 43.56 -23 49 C-14.42 49 -5.84 49 3 49 C4.45220974 61.29537581 4.45220974 61.29537581 3 66 C-0.74599189 69.89540467 -4.83935342 71.89495576 -9.7578125 74.02490234 C-12.04331994 75.01883927 -14.26851106 76.09758221 -16.5 77.20703125 C-34.69861867 86.15292027 -34.69861867 86.15292027 -43 87 C-43.71285156 87.09925781 -44.42570312 87.19851563 -45.16015625 87.30078125 C-48.63895933 87.59697317 -50.99851067 87.77397477 -53.83984375 85.578125 C-55.4093796 83.78217689 -56.74355711 82.02678657 -58 80 C-58.37382812 79.401875 -58.74765625 78.80375 -59.1328125 78.1875 C-61.33963747 72.62073432 -61.14967765 64.99557443 -59.01953125 59.4453125 C-57.19253777 56.46590774 -55.44431957 54.34825047 -52.6875 52.1875 C-50.54165103 49.40584393 -50.90138078 48.20458572 -51.0625 44.75 C-51.2615442 39.62289584 -50.32554478 36.77650321 -47.484375 32.55859375 C-45.77319459 30.76185432 -44.30671612 29.89854639 -42 29 C-41.01 29 -40.02 29 -39 29 C-39.0825 27.989375 -39.165 26.97875 -39.25 25.9375 C-38.95527386 21.29556329 -37.98210145 18.54343819 -35 15 C-30.59292245 11.29107335 -26.77905456 10.52824044 -21 11 C-20.7215625 9.948125 -20.7215625 9.948125 -20.4375 8.875 C-16.10870282 0.21740564 -9.29781 -1.76426589 0 0 Z " fill="#1E4263" transform="translate(315,440)"/>
<path d="M0 0 C0.99 0.495 0.99 0.495 2 1 C1.16597656 1.81082031 0.33195313 2.62164062 -0.52734375 3.45703125 C-6.6321005 9.4443363 -12.37449155 15.47550493 -17.69140625 22.1875 C-20.34056601 25.41490275 -23.1447025 28.45574899 -26 31.5 C-30.4623462 36.26398848 -34.64463806 41.17121989 -38.73046875 46.265625 C-41.17777029 49.21418107 -43.75684479 52.01726263 -46.375 54.8125 C-51.28157527 60.07594815 -55.72486447 65.61276011 -60.12109375 71.3046875 C-63.15246971 75.22296344 -66.29429011 79.04633753 -69.4375 82.875 C-75.8651739 90.74326138 -81.9877664 98.81134924 -88 107 C-88.54188965 107.73541016 -89.0837793 108.47082031 -89.64208984 109.22851562 C-96.78454368 118.93976491 -103.63089809 128.76335559 -110 139 C-117.02197093 135.91718349 -121.89536123 129.19411946 -126.80078125 123.48828125 C-129.90711435 119.9736557 -133.10950071 116.55145492 -136.3125 113.125 C-136.93592285 112.45782959 -137.5593457 111.79065918 -138.20166016 111.10327148 C-141.56206064 107.51426541 -141.56206064 107.51426541 -145 104 C-145 103.01 -145 102.02 -145 101 C-142.59375 98.95703125 -142.59375 98.95703125 -139.5 96.8125 C-138.4790625 96.09707031 -137.458125 95.38164063 -136.40625 94.64453125 C-135.21515625 93.83048828 -135.21515625 93.83048828 -134 93 C-130.33806761 96.06406588 -126.81979702 99.12978472 -123.5 102.5625 C-120.26581753 105.8626862 -116.82925664 108.42111288 -113 111 C-108.72756895 106.28519189 -104.56510044 101.5093759 -100.5625 96.5625 C-96.94914317 92.10955079 -93.20483929 87.81410582 -89.3359375 83.58203125 C-87.42877401 81.47394586 -85.55571857 79.34489225 -83.69140625 77.19921875 C-74.69486362 66.89769634 -65.14991371 57.0626847 -55.5 47.375 C-54.86650635 46.73691406 -54.2330127 46.09882813 -53.58032227 45.44140625 C-49.78897429 41.66248892 -45.87901344 38.07988021 -41.80981445 34.6015625 C-40.01529614 33.01353605 -38.34694296 31.35268273 -36.6875 29.625 C-28.27600183 21.11941348 -18.32657406 14.13637974 -8.8203125 6.91796875 C-5.84445447 4.6550615 -2.90557623 2.35294703 0 0 Z " fill="#90C541" transform="translate(439,445)"/>
<path d="M0 0 C18.15 0 36.3 0 55 0 C55 4.62 55 9.24 55 14 C42.46 14 29.92 14 17 14 C17 19.28 17 24.56 17 30 C28.55 30 40.1 30 52 30 C52 34.95 52 39.9 52 45 C40.45 45 28.9 45 17 45 C17 54.57 17 64.14 17 74 C11.39 74 5.78 74 0 74 C0 49.58 0 25.16 0 0 Z " fill="#3AA8DB" transform="translate(676,459)"/>
<path d="M0 0 C7.19856384 4.30703988 11.27187168 9.87550813 13.375 17.9375 C13.375 21.8975 13.375 25.8575 13.375 29.9375 C0.835 29.9375 -11.705 29.9375 -24.625 29.9375 C-23.2625572 36.52293658 -23.2625572 36.52293658 -20.5625 39.375 C-16.49496344 41.53858327 -13.14141859 41.61218468 -8.625 40.9375 C-4.28803391 39.38677204 -4.28803391 39.38677204 -1.625 35.9375 C5.305 36.4325 5.305 36.4325 12.375 36.9375 C11.14899021 43.06754895 9.08188248 45.93288773 4.375 49.9375 C-3.32055017 54.40067046 -11.9229356 55.07825786 -20.625 53.9375 C-28.02023386 51.75117064 -33.43279405 47.36554913 -37.625 40.9375 C-41.72353716 33.09172886 -41.90525308 23.62723158 -39.5625 15.1875 C-36.79138897 7.98522558 -31.2310707 2.69094926 -24.625 -1.0625 C-17.18563062 -3.54228979 -7.13278974 -3.32137537 0 0 Z " fill="#1E4164" transform="translate(530.625,480.0625)"/>
<path d="M0 0 C8.6613451 26.61920061 5.63900863 51.22968928 -6.51953125 76.109375 C-17.9120693 97.06499243 -38.08113369 113.61992492 -60.99560547 120.60864258 C-70.97616296 123.26927293 -81.6756828 125.75619829 -92 124 C-96.50707646 121.38875729 -97.48654987 116.71879212 -99 112 C-98.41734375 111.9906543 -97.8346875 111.98130859 -97.234375 111.97167969 C-70.79299818 111.44160492 -47.17989142 105.3614401 -28.23046875 85.640625 C-21.04469197 77.13347071 -15.61613912 67.52934625 -12 57 C-11.608125 55.8965625 -11.21625 54.793125 -10.8125 53.65625 C-6.85778643 41.02313719 -6.30940964 27.12748582 -9.5 14.25 C-10.26630371 10.64630147 -10.29923871 9.51552016 -8.421875 6.28125 C-3.03240741 0 -3.03240741 0 0 0 Z " fill="#22466A" transform="translate(416,482)"/>
<path d="M0 0 C4.84482226 4.49372909 7.60947309 9.9105485 10.8125 15.625 C11.42287109 16.6871875 12.03324219 17.749375 12.66210938 18.84375 C13.5196582 20.36355469 13.5196582 20.36355469 14.39453125 21.9140625 C14.91893799 22.8417041 15.44334473 23.7693457 15.98364258 24.72509766 C16.31904053 25.47581543 16.65443848 26.2265332 17 27 C16.67 27.66 16.34 28.32 16 29 C13.36 28.01 10.72 27.02 8 26 C8.04640625 26.69222656 8.0928125 27.38445312 8.140625 28.09765625 C9.10077128 54.12447872 -5.85400388 77.04666073 -22.671875 95.5234375 C-25.67224714 98.71510854 -28.77723808 101.7903478 -31.8984375 104.86328125 C-33.78597461 106.78239426 -35.523274 108.74978544 -37.25 110.8125 C-40.71017326 114.84146886 -44.58140992 118.35973691 -48.50952148 121.91821289 C-56.2755434 129.00026708 -63.61335504 136.526798 -71 144 C-76.47950205 141.36473101 -80.46216623 137.97917345 -84 133 C-84 132.34 -84 131.68 -84 131 C-81.6348912 129.27854083 -79.25933533 127.66033162 -76.8125 126.0625 C-69.05173828 120.86394488 -61.98394897 115.18947858 -55 109 C-54.12859375 108.23945313 -53.2571875 107.47890625 -52.359375 106.6953125 C-42.37757441 97.87491638 -33.11871002 88.57550227 -25 78 C-24.5992627 77.48099121 -24.19852539 76.96198242 -23.78564453 76.42724609 C-14.30569681 64.03779469 -5.82980295 50.25968119 -2 35 C-1.82339844 34.30390625 -1.64679688 33.6078125 -1.46484375 32.890625 C0.14939826 25.85389397 0.23375344 19.06945819 0.125 11.875 C0.11597656 10.72773438 0.10695313 9.58046875 0.09765625 8.3984375 C0.07432538 5.59873252 0.04159232 2.79948305 0 0 Z " fill="#3CAADC" transform="translate(394,403)"/>
<path d="M0 0 C3.85551634 3.3735768 6.48780201 7.93743459 8.71875 12.50390625 C8.71875 13.49390625 8.71875 14.48390625 8.71875 15.50390625 C7.501875 15.09140625 6.285 14.67890625 5.03125 14.25390625 C1.04174175 12.92827851 -2.95808849 11.63913704 -6.96875 10.37890625 C-8.02449219 10.04632813 -9.08023438 9.71375 -10.16796875 9.37109375 C-31.78398615 3.35007008 -53.29838891 7.80928076 -72.45507812 18.44384766 C-89.76528218 28.49209712 -100.75081438 43.13014364 -107.9921875 61.4453125 C-109.94617331 66.08158791 -112.32502388 69.74534372 -115.71875 73.44140625 C-117.90142671 75.86813753 -119.85621916 78.24084029 -121.59375 81.00390625 C-122.150625 81.82890625 -122.7075 82.65390625 -123.28125 83.50390625 C-123.94125 83.50390625 -124.60125 83.50390625 -125.28125 83.50390625 C-123.95549851 57.72032561 -112.7013074 35.44795756 -93.67919922 18.03759766 C-81.62400863 7.44342633 -67.86563429 0.37960391 -52.28125 -3.49609375 C-51.44078125 -3.72039062 -50.6003125 -3.9446875 -49.734375 -4.17578125 C-34.8921087 -7.54064286 -13.55925472 -7.58247797 0 0 Z " fill="#92C640" transform="translate(357.28125,421.49609375)"/>
<path d="M0 0 C5.28 0 10.56 0 16 0 C17.55000162 4.34102596 19.09884719 8.68242904 20.64477539 13.02490234 C21.17079285 14.50138006 21.69747931 15.97761962 22.22485352 17.45361328 C22.98370457 19.57782406 23.74012868 21.70288572 24.49609375 23.828125 C24.73154404 24.48556702 24.96699432 25.14300903 25.20957947 25.82037354 C26.28621316 28.8540865 27.3037166 31.85460036 28 35 C30.78217493 27.8036481 33.09022391 20.53061165 35.16088867 13.10375977 C36.4537635 8.55128614 38.05162005 4.31467328 40 0 C44.95 0 49.9 0 55 0 C52.96422738 9.70906944 50.21657592 18.68493874 46.31640625 27.8125 C44.48742033 32.24114247 42.91623052 36.74887588 41.3203125 41.265625 C39.87618778 45.35019079 38.42336773 49.43044394 36.9375 53.5 C36.58764038 54.48758301 36.58764038 54.48758301 36.23071289 55.49511719 C33.78094866 62.15140125 30.27254094 67.26823249 25 72 C21.23699626 73.25433458 17.72789091 73.10695422 13.8125 73.0625 C13.06291016 73.05798828 12.31332031 73.05347656 11.54101562 73.04882812 C9.69397617 73.03706354 7.84697787 73.01912865 6 73 C6 69.04 6 65.08 6 61 C7.4025 60.9175 8.805 60.835 10.25 60.75 C13.42371238 60.38457255 14.88491547 60.07398291 17.625 58.3125 C19.56757796 55.04543707 18.88230883 53.71402415 18 50 C16.76418491 46.36936245 15.3687203 42.80676237 13.96484375 39.23828125 C13.36767296 37.69686714 13.36767296 37.69686714 12.75843811 36.12431335 C11.49021288 32.85157184 10.21466461 29.58176244 8.9375 26.3125 C7.6570222 23.03243115 6.3782936 19.75174624 5.10585022 16.46855164 C4.31492012 14.42780497 3.51935014 12.38884939 2.71873474 10.35188293 C2.3615889 9.43050034 2.00444305 8.50911774 1.63647461 7.55981445 C1.31972275 6.74962357 1.00297089 5.93943268 0.67662048 5.10469055 C0 3 0 3 0 0 Z " fill="#37A7DB" transform="translate(734,479)"/>
<path d="M0 0 C20.46 0 40.92 0 62 0 C62 4.62 62 9.24 62 14 C54.41 14 46.82 14 39 14 C39 33.8 39 53.6 39 74 C33.72 74 28.44 74 23 74 C23 54.2 23 34.4 23 14 C15.41 14 7.82 14 0 14 C0 9.38 0 4.76 0 0 Z " fill="#204264" transform="translate(436,459)"/>
<path d="M0 0 C4.31798116 2.97590594 6.43175393 4.77532133 7.546875 10.0078125 C7.60875 11.0596875 7.670625 12.1115625 7.734375 13.1953125 C3.38395645 13.8386394 -0.86377352 14.34635642 -5.265625 14.1953125 C-7.953125 11.7578125 -7.953125 11.7578125 -10.265625 9.1953125 C-13.64401327 8.63224779 -16.88738171 8.62728929 -20.265625 9.1953125 C-20.925625 9.8553125 -21.585625 10.5153125 -22.265625 11.1953125 C-22.33317334 13.26130333 -22.33317334 13.26130333 -21.265625 15.1953125 C-16.56502566 17.48785434 -11.40518811 18.41497269 -6.32421875 19.51953125 C-0.55508166 20.87115765 4.64257233 22.83359981 8.671875 27.3828125 C10.75458768 32.89587548 10.51220751 38.10083738 8.171875 43.5078125 C4.83061741 49.44651415 -0.92838726 51.39444278 -7.265625 53.1953125 C-16.76689047 54.13947591 -25.29128654 54.11123432 -33.265625 48.1953125 C-36.29212354 45.16881396 -37.97839817 42.2715308 -39.265625 38.1953125 C-39.265625 37.2053125 -39.265625 36.2153125 -39.265625 35.1953125 C-37.01728004 35.06005111 -34.76659986 34.96320446 -32.515625 34.8828125 C-31.26265625 34.82480469 -30.0096875 34.76679687 -28.71875 34.70703125 C-25.265625 35.1953125 -25.265625 35.1953125 -22.9375 37.65234375 C-22.10992188 38.91111328 -22.10992188 38.91111328 -21.265625 40.1953125 C-18.80192968 41.42716016 -17.0761749 41.36263592 -14.328125 41.3828125 C-13.45285156 41.39699219 -12.57757812 41.41117188 -11.67578125 41.42578125 C-9.00318165 41.36194599 -9.00318165 41.36194599 -6.265625 39.1953125 C-6.01531523 36.61151073 -6.01531523 36.61151073 -6.265625 34.1953125 C-11.30299627 32.43223256 -16.24730641 30.94065767 -21.453125 29.7578125 C-27.55071387 28.25472198 -31.38599845 26.27279448 -35.640625 21.5703125 C-37.8543015 16.97267669 -38.16329522 13.20796658 -37.265625 8.1953125 C-35.28753779 3.39138642 -31.70023797 -0.0609578 -26.96484375 -2.14453125 C-18.46021905 -4.22453353 -7.80100147 -4.32381089 0 0 Z " fill="#204265" transform="translate(589.265625,480.8046875)"/>
<path d="M0 0 C0.66 0 1.32 0 2 0 C2.45394551 7.56575847 2.56504736 13.69379676 -2 20 C-4.6875 22.875 -4.6875 22.875 -7 25 C-7.33 25.66 -7.66 26.32 -8 27 C-7.7009375 27.58394531 -7.401875 28.16789063 -7.09375 28.76953125 C-4.90400892 33.23503896 -5.31571271 38.17365516 -6 43 C-7.99961573 47.81757954 -10.96586374 51.64781634 -15.3125 54.5625 C-19.74914078 56.29203793 -23.30837075 56.38299014 -28 56 C-28.00257813 56.556875 -28.00515625 57.11375 -28.0078125 57.6875 C-28.34033553 64.24928771 -30.16748619 68.49096075 -35 73 C-41.32662744 77.48635199 -47.3164385 78.98687946 -55 78 C-55.99 77.67 -56.98 77.34 -58 77 C-56.73603903 73.54296116 -55.29198368 70.76006868 -53.09375 67.8125 C-52.51987549 67.03801514 -51.94600098 66.26353027 -51.35473633 65.46557617 C-50.74267334 64.65193604 -50.13061035 63.8382959 -49.5 63 C-48.55386841 61.73023315 -48.55386841 61.73023315 -47.58862305 60.43481445 C-42.46120147 53.56979203 -37.27121194 46.75533958 -32 40 C-31.57686523 39.45601562 -31.15373047 38.91203125 -30.71777344 38.3515625 C-24.78712804 30.7308368 -18.76053657 23.19280304 -12.64990234 15.71557617 C-10.22907876 12.75253192 -7.81816157 9.78575567 -5.46875 6.765625 C-4.7571875 5.85296875 -4.045625 4.9403125 -3.3125 4 C-2.71050781 3.21625 -2.10851562 2.4325 -1.48828125 1.625 C-0.99714844 1.08875 -0.50601563 0.5525 0 0 Z " fill="#22466A" transform="translate(396,502)"/>
<path d="M0 0 C4.95 0 9.9 0 15 0 C15 4.95 15 9.9 15 15 C18.63 15 22.26 15 26 15 C26 18.63 26 22.26 26 26 C22.37 26 18.74 26 15 26 C15.09348407 29.95141222 15.19956488 33.9022637 15.31738281 37.85302734 C15.37454036 39.85886971 15.42168596 41.86498918 15.46875 43.87109375 C15.50742187 45.12792969 15.54609375 46.38476562 15.5859375 47.6796875 C15.63306885 49.42354736 15.63306885 49.42354736 15.68115234 51.20263672 C15.72157869 54.13656482 15.72157869 54.13656482 18 56 C20.65537372 56.56520003 23.29144713 56.73788198 26 57 C26 60.96 26 64.92 26 69 C19.65454183 70.26909163 13.10584549 71.48143052 7.125 68.375 C3.70144287 65.77309658 2.06136822 63.76340023 0 60 C-0.33663684 57.24935123 -0.47224142 54.92651634 -0.390625 52.1953125 C-0.38496521 51.4713327 -0.37930542 50.74735291 -0.37347412 50.00143433 C-0.35123667 47.70859212 -0.30106987 45.41736284 -0.25 43.125 C-0.22991841 41.56252271 -0.21167055 40.00002071 -0.1953125 38.4375 C-0.15141416 34.6243867 -0.08247971 30.81246598 0 27 C-2.64 27 -5.28 27 -8 27 C-8 23.04 -8 19.08 -8 15 C-5.36 15 -2.72 15 0 15 C0 10.05 0 5.1 0 0 Z " fill="#1F4366" transform="translate(611,464)"/>
<path d="M0 0 C1.60546875 1.75 1.60546875 1.75 3.1875 4 C3.71730469 4.7425 4.24710937 5.485 4.79296875 6.25 C5.19128906 6.8275 5.58960938 7.405 6 8 C5.54109375 8.556875 5.0821875 9.11375 4.609375 9.6875 C-3.77235589 20.11183758 -6.46282545 27.64926579 -6 41 C-5.58601101 44.51526162 -5.58601101 44.51526162 -5 47 C-22.44232377 40.51784377 -38.26798566 24.80074981 -46 8 C-45.67 7.34 -45.34 6.68 -45 6 C-43.95585937 6.24169922 -43.95585937 6.24169922 -42.890625 6.48828125 C-30.5045205 8.68095651 -19.7078585 5.74325577 -8.13916016 1.67700195 C-5.28283713 0.6847392 -3.04926404 0 0 0 Z " fill="#8DC23B" transform="translate(290,550)"/>
<path d="M0 0 C3.04104774 0.22104532 4.06974286 1.06748157 6.2890625 3.21484375 C7.05992187 4.11332031 7.83078125 5.01179687 8.625 5.9375 C9.78902344 7.28134766 9.78902344 7.28134766 10.9765625 8.65234375 C11.64429688 9.42707031 12.31203125 10.20179688 13 11 C13.66 11.66 14.32 12.32 15 13 C14.78958573 14.54303799 14.56904156 16.08505116 14.3125 17.62109375 C13.03994656 27.30840682 13.01204352 35.93659257 19 44 C24.64098058 50.40969136 31.1140106 53.93404524 39 57 C39 57.33 39 57.66 39 58 C22.43259216 57.78174672 9.60861592 54.61932452 -3 43 C-5.07252648 40.47043166 -6.65709001 37.9761789 -8 35 C-8.36222656 34.2059375 -8.72445313 33.411875 -9.09765625 32.59375 C-11.66664896 25.20928611 -10.32845528 16.92612386 -7 10 C-2.60305344 2.60305344 -2.60305344 2.60305344 0 0 Z " fill="#3BA9DE" transform="translate(298,562)"/>
<path d="M0 0 C3.75998729 2.42310292 7.10306424 4.79333667 8.625 9.125 C8.686875 9.681875 8.74875 10.23875 8.8125 10.8125 C10.483125 10.7815625 10.483125 10.7815625 12.1875 10.75 C15.8125 10.8125 15.8125 10.8125 17.8125 11.8125 C17.21248243 15.80297833 15.95331799 18.79158251 14 22.3125 C13.49855469 23.2303125 12.99710937 24.148125 12.48046875 25.09375 C10.72443609 27.95604211 9.14877022 30.38900501 6.8125 32.8125 C3.97167969 33.38012695 3.97167969 33.38012695 0.734375 33.30078125 C-1.00585938 33.27661133 -1.00585938 33.27661133 -2.78125 33.25195312 C-4.59109375 33.18911133 -4.59109375 33.18911133 -6.4375 33.125 C-7.65953125 33.10244141 -8.8815625 33.07988281 -10.140625 33.05664062 C-13.15748502 32.99771758 -16.17187515 32.91549265 -19.1875 32.8125 C-19.27475659 28.5834638 -19.3279789 24.35465988 -19.375 20.125 C-19.40013672 18.92681641 -19.42527344 17.72863281 -19.45117188 16.49414062 C-19.46083984 15.33720703 -19.47050781 14.18027344 -19.48046875 12.98828125 C-19.4961792 11.92520752 -19.51188965 10.86213379 -19.52807617 9.7668457 C-19.02432798 5.39705584 -17.35720868 2.78168719 -14 0 C-9.03482265 -2.09640821 -4.91680517 -1.83175095 0 0 Z " fill="#1F4365" transform="translate(348.1875,440.1875)"/>
<path d="M0 0 C0.495 1.485 0.495 1.485 1 3 C2.32 2.34 3.64 1.68 5 1 C5 4 5 4 3.55053711 5.77416992 C2.8828833 6.41974854 2.21522949 7.06532715 1.52734375 7.73046875 C0.79193359 8.45169922 0.05652344 9.17292969 -0.70117188 9.91601562 C-1.8700293 11.04040039 -1.8700293 11.04040039 -3.0625 12.1875 C-8.04571558 17.02553192 -12.88739208 21.88054517 -17.41186523 27.15356445 C-20.56186841 30.81589712 -23.87846443 34.32727914 -27.15625 37.875 C-33.75186451 45.08149293 -39.97184817 52.56792558 -46.1015625 60.171875 C-46.98714844 61.25855469 -46.98714844 61.25855469 -47.890625 62.3671875 C-48.41688477 63.01800293 -48.94314453 63.66881836 -49.48535156 64.33935547 C-51 66 -51 66 -54 68 C-54.42821045 67.5968457 -54.8564209 67.19369141 -55.29760742 66.77832031 C-57.25911307 64.93363087 -59.22328004 63.09179881 -61.1875 61.25 C-61.86103516 60.61578125 -62.53457031 59.9815625 -63.22851562 59.328125 C-66.71341262 56.06422147 -70.21045475 52.91390276 -74 50 C-74.62648438 50.5053125 -75.25296875 51.010625 -75.8984375 51.53125 C-76.71570313 52.1809375 -77.53296875 52.830625 -78.375 53.5 C-79.18710937 54.1496875 -79.99921875 54.799375 -80.8359375 55.46875 C-83 57 -83 57 -85 57 C-83.16172132 60.15133488 -81.24027294 63.11964908 -79 66 C-79.66 66.99 -80.32 67.98 -81 69 C-84.02990095 67.28032649 -86.76327296 65.70761694 -89 63 C-89 62.34 -89 61.68 -89 61 C-91.31 61.66 -93.62 62.32 -96 63 C-96 62.34 -96 61.68 -96 61 C-95.34 61 -94.68 61 -94 61 C-94.33 59.68 -94.66 58.36 -95 57 C-94.46632813 56.731875 -93.93265625 56.46375 -93.3828125 56.1875 C-87.78227191 53.24188695 -83.06566936 49.78733672 -78.26171875 45.671875 C-76.03183621 44.0235335 -74.76970093 43.10133052 -72 43 C-70.25390625 44.2578125 -70.25390625 44.2578125 -68.5625 46.125 C-67.95921875 46.77082031 -67.3559375 47.41664063 -66.734375 48.08203125 C-66.16203125 48.71496094 -65.5896875 49.34789062 -65 50 C-62.0834708 53.05218172 -59.80715666 55.22867027 -56 57 C-55.28457031 56.2793335 -54.56914062 55.55866699 -53.83203125 54.81616211 C-51.14342116 52.10927088 -48.45135438 49.40583901 -45.75830078 46.70336914 C-44.59949681 45.53957726 -43.44159678 44.37488451 -42.28466797 43.20922852 C-36.55991351 37.44241666 -30.85633692 31.74891122 -24.66796875 26.47436523 C-22.06572154 24.17416458 -19.81142298 21.65588874 -17.5 19.0625 C-14.27255771 15.47102245 -11.00662549 11.94890272 -7.5625 8.5625 C-4.81324369 5.85840601 -2.31894676 3.09192902 0 0 Z " fill="#F7F8F3" transform="translate(379,489)"/>
<path d="M0 0 C4.95 0 9.9 0 15 0 C15 17.82 15 35.64 15 54 C10.05 54 5.1 54 0 54 C0 36.18 0 18.36 0 0 Z " fill="#224767" transform="translate(647,479)"/>
<path d="M0 0 C1.9375 0.6875 1.9375 0.6875 4 2 C5.09809194 5.29427581 5.11196276 6.66411172 4 10 C3.17649969 19.0467391 3.46697391 26.54920374 9 34 C14.64098058 40.40969136 21.1140106 43.93404524 29 47 C29 47.33 29 47.66 29 48 C19.07666666 48.11043455 12.76329744 46.19821668 5 40 C4.30777344 39.44957031 3.61554688 38.89914062 2.90234375 38.33203125 C-2.60834495 33.40634135 -5.38039991 27.5288295 -6.37890625 20.23046875 C-6.72267771 12.30154634 -4.33966987 6.5095048 0 0 Z " fill="#224A75" transform="translate(308,572)"/>
<path d="M0 0 C1.32 1.32 2.64 2.64 4 4 C2.948125 5.23363281 2.948125 5.23363281 1.875 6.4921875 C-3.86568476 13.24013476 -9.51571866 20.04077935 -15 27 C-15.78375 27.98742187 -16.5675 28.97484375 -17.375 29.9921875 C-23.89977265 38.23478724 -30.27626407 46.58605428 -36.60546875 54.97973633 C-37.26160156 55.84622803 -37.91773438 56.71271973 -38.59375 57.60546875 C-39.17833984 58.38043701 -39.76292969 59.15540527 -40.36523438 59.95385742 C-41.81755159 61.77163976 -43.31679699 63.39757286 -45 65 C-45.33 64.01 -45.66 63.02 -46 62 C-46.66 61.67 -47.32 61.34 -48 61 C-35.79022216 44.26758517 -23.10203337 28.03884111 -10 12 C-9.07021873 10.85945143 -8.1405257 9.71883093 -7.2109375 8.578125 C-1.14524648 1.14524648 -1.14524648 1.14524648 0 0 Z " fill="#F4F6F0" transform="translate(390,502)"/>
<path d="M0 0 C2.9375 0.4375 2.9375 0.4375 5.9375 2.4375 C5.9375 1.7775 5.9375 1.1175 5.9375 0.4375 C6.9275 0.4375 7.9175 0.4375 8.9375 0.4375 C9.01876109 3.16727064 9.07811663 5.8946017 9.125 8.625 C9.15013672 9.39392578 9.17527344 10.16285156 9.20117188 10.95507812 C9.26041838 15.55655699 9.12210311 18.81703509 5.9375 22.4375 C3.78125 23.25 3.78125 23.25 1.4375 23.4375 C0.27734375 23.56125 0.27734375 23.56125 -0.90625 23.6875 C-3.0625 23.4375 -3.0625 23.4375 -4.84375 22.0625 C-6.0625 20.4375 -6.0625 20.4375 -6.0625 18.4375 C-2.7625 18.7675 0.5375 19.0975 3.9375 19.4375 C4.2675 18.1175 4.5975 16.7975 4.9375 15.4375 C3.865 15.685 2.7925 15.9325 1.6875 16.1875 C-2.0625 16.4375 -2.0625 16.4375 -4.4375 14.9375 C-6.58470018 11.63411511 -7.0625 9.37572443 -7.0625 5.4375 C-5.10888841 1.76471022 -4.16285867 0.5946941 0 0 Z " fill="#B1B1AF" transform="translate(758.0625,559.5625)"/>
<path d="M0 0 C12.54 0 25.08 0 38 0 C38 0.33 38 0.66 38 1 C34.04 1 30.08 1 26 1 C26.33 2.65 26.66 4.3 27 6 C25.68 6 24.36 6 23 6 C22.773125 6.61875 22.54625 7.2375 22.3125 7.875 C20.51452118 10.78601333 19.3145721 11.15372627 16 12 C11.33999678 12.64483439 7.41623433 12.80625961 3.5 9.9375 C1 7 1 7 0 0 Z " fill="#E9EEF1" transform="translate(506,510)"/>
<path d="M0 0 C4.62 0 9.24 0 14 0 C14 0.33 14 0.66 14 1 C12.02 1 10.04 1 8 1 C8 8.59 8 16.18 8 24 C-3.44392523 24.36915888 -3.44392523 24.36915888 -5.859375 22.765625 C-8.01481951 19.429115 -7.59689649 15.80778792 -7 12 C-5.5 9.375 -5.5 9.375 -3 8 C-0.18031622 7.98923785 2.20614363 8.44122873 5 9 C5 6.36 5 3.72 5 1 C3.35 1 1.7 1 0 1 C0 0.67 0 0.34 0 0 Z " fill="#ACB4B9" transform="translate(740,552)"/>
<path d="M0 0 C1.65 0 3.3 0 5 0 C5.8394882 2.10171867 6.67139656 4.20646625 7.5 6.3125 C8.19609375 8.07013672 8.19609375 8.07013672 8.90625 9.86328125 C10 13 10 13 10 16 C10.66 16 11.32 16 12 16 C12.18175781 15.34773437 12.36351562 14.69546875 12.55078125 14.0234375 C13.97466596 9.07269989 15.49407234 4.53453577 18 0 C19.32 0 20.64 0 22 0 C22 7.26 22 14.52 22 22 C21.01 22 20.02 22 19 22 C18.67 17.38 18.34 12.76 18 8 C17.2575 10.124375 16.515 12.24875 15.75 14.4375 C14.484375 18.05859375 14.484375 18.05859375 13 21 C11.68 21.33 10.36 21.66 9 22 C7.35 17.05 5.7 12.1 4 7 C3.67 11.95 3.34 16.9 3 22 C2.01 22 1.02 22 0 22 C0 14.74 0 7.48 0 0 Z " fill="#A5A7A8" transform="translate(447,554)"/>
<path d="M0 0 C5.28 0 10.56 0 16 0 C16 4.62 16 9.24 16 14 C10.72 14 5.44 14 0 14 C0 9.38 0 4.76 0 0 Z " fill="#294C6F" transform="translate(646,457)"/>
<path d="M0 0 C3.57309847 2.04177055 5.61768098 4.10437367 7 8 C7 8.99 7 9.98 7 11 C-0.92 11 -8.84 11 -17 11 C-16 5 -16 5 -14.125 2.125 C-9.53802575 -0.99414249 -5.39022595 -0.88351072 0 0 Z " fill="#EDF1F4" transform="translate(523,490)"/>
<path d="M0 0 C3.38677089 2.45000447 4.78698584 3.86392446 5.5625 8 C4.84202557 11.8425303 3.99097304 13.45767292 1 16 C-1.95424795 16.63008105 -3.90655222 16.39281877 -7 16 C-9.17476401 14.45661909 -9.81832637 13.36334727 -11 11 C-11.35519903 7.16385043 -11.54724594 4.85370366 -9.4375 1.5625 C-6.01685857 -0.63021887 -3.99048721 -0.63007693 0 0 Z " fill="#A9ABAB" transform="translate(676,560)"/>
<path d="M0 0 C2.4375 1.5 2.4375 1.5 4 4 C4.6799589 7.77068116 4.4051456 10.91961173 3.0625 14.5 C0.12681459 16.63504394 -2.33850329 16.5604356 -5.90234375 16.375 C-8 16 -8 16 -10.0625 14.5 C-11.4051456 10.91961173 -11.6799589 7.77068116 -11 4 C-8.16250305 -0.53999512 -5.10870514 -0.72981502 0 0 Z " fill="#A0A2A5" transform="translate(582,560)"/>
<path d="M0 0 C3.5 0.5625 3.5 0.5625 5.875 2.25 C7.5 4.5625 7.5 4.5625 8.5 9.5625 C4.54 9.5625 0.58 9.5625 -3.5 9.5625 C-3.17 10.8825 -2.84 12.2025 -2.5 13.5625 C1.0219721 13.64254482 4.11981469 13.60255702 7.5 12.5625 C5.75 16.4375 5.75 16.4375 3.5 17.5625 C0.6875 18 0.6875 18 -2.5 17.5625 C-5.6671867 14.67072083 -7.28208006 12.748953 -8.0625 8.5 C-7.06515554 3.29164561 -5.3314053 0.856833 0 0 Z " fill="#B2B2B2" transform="translate(721.5,559.4375)"/>
<path d="M0 0 C2.875 1.6875 2.875 1.6875 5 4 C5 5.65 5 7.3 5 9 C1.37 9.33 -2.26 9.66 -6 10 C-5.67 10.99 -5.34 11.98 -5 13 C-1.7 12.67 1.6 12.34 5 12 C3 16 3 16 1 17 C-2.97357645 17.52981019 -4.54170381 17.31881474 -7.875 15 C-10.81148802 10.85436985 -10.7152453 9.00671711 -10 4 C-7.30203057 -0.15072221 -4.80768487 -0.78492814 0 0 Z " fill="#ABACAC" transform="translate(780,560)"/>
<path d="M0 0 C2.43016011 2.31364558 2.96659933 3.65619573 3.29296875 7.015625 C3.25816406 8.08296875 3.22335937 9.1503125 3.1875 10.25 C3.16042969 11.32765625 3.13335937 12.4053125 3.10546875 13.515625 C3.07066406 14.33546875 3.03585937 15.1553125 3 16 C0.85423363 16.02685938 -1.29162645 16.04633088 -3.4375 16.0625 C-4.63246094 16.07410156 -5.82742188 16.08570313 -7.05859375 16.09765625 C-10 16 -10 16 -11 15 C-10.71269945 12.66055264 -10.38063221 10.3260857 -10 8 C-6.62902617 6.50178941 -4.79557881 6 -1 6 C-1.33 5.01 -1.66 4.02 -2 3 C-4.64 3.33 -7.28 3.66 -10 4 C-9.67 3.01 -9.34 2.02 -9 1 C-5.9167365 -0.54163175 -3.39121901 -0.29747535 0 0 Z " fill="#B4B5B6" transform="translate(484,560)"/>
<path d="M0 0 C0.99 0 1.98 0 3 0 C3.99 2.97 4.98 5.94 6 9 C7.49403054 6.01193893 8.79310745 3.10343799 10 0 C10.99 0 11.98 0 13 0 C14.32 2.97 15.64 5.94 17 9 C17.99 6.03 18.98 3.06 20 0 C20.99 0 21.98 0 23 0 C21.90301833 5.69139902 20.45946923 10.74567937 18 16 C17.01 16 16.02 16 15 16 C14.01 13.03 13.02 10.06 12 7 C10.68 9.97 9.36 12.94 8 16 C7.01 16 6.02 16 5 16 C4.1605118 13.89828133 3.32860344 11.79353375 2.5 9.6875 C2.0359375 8.51574219 1.571875 7.34398437 1.09375 6.13671875 C0 3 0 3 0 0 Z " fill="#AAADAE" transform="translate(682,560)"/>
<path d="M0 0 C2.875 2.25 2.875 2.25 5 5 C5 6.32 5 7.64 5 9 C1.04 9 -2.92 9 -7 9 C-6.34 10.32 -5.68 11.64 -5 13 C-0.545 12.505 -0.545 12.505 4 12 C2 16 2 16 0 17 C-3.46500939 17.37663145 -5.36348003 17.38526209 -8.375 15.5625 C-10.77513557 11.77767083 -10.7842297 8.3612774 -10 4 C-7.36147249 -0.16075491 -4.78558691 -0.87898535 0 0 Z " fill="#A8A9AA" transform="translate(527,560)"/>
<path d="M0 0 C0.99 0 1.98 0 3 0 C3 3.3 3 6.6 3 10 C3.721875 9.278125 4.44375 8.55625 5.1875 7.8125 C6.115625 6.884375 7.04375 5.95625 8 5 C8.86625 4.071875 9.7325 3.14375 10.625 2.1875 C13 0 13 0 16 0 C14.88408263 2.60380719 13.93328633 4.06099536 11.8125 6 C11.214375 6.66 10.61625 7.32 10 8 C10.38702046 11.56058825 12.20693324 14.24950907 14.0625 17.25 C14.61035156 18.14203125 15.15820312 19.0340625 15.72265625 19.953125 C16.35494141 20.96632813 16.35494141 20.96632813 17 22 C14.27425729 21.62669176 13.19177915 21.20805399 11.296875 19.15234375 C10.78640625 18.42144531 10.2759375 17.69054687 9.75 16.9375 C9.22921875 16.20402344 8.7084375 15.47054687 8.171875 14.71484375 C7.78515625 14.14894531 7.3984375 13.58304688 7 13 C6.01 13.66 5.02 14.32 4 15 C3.26393501 18.56769552 3.26393501 18.56769552 3 22 C2.01 22 1.02 22 0 22 C0 14.74 0 7.48 0 0 Z " fill="#B7B8B8" transform="translate(628,554)"/>
<path d="M0 0 C0.99 0 1.98 0 3 0 C3.33 4.29 3.66 8.58 4 13 C8.63019987 12.5547002 8.63019987 12.5547002 10 11 C10.23363881 9.15108054 10.41303635 7.29511969 10.5625 5.4375 C10.64628906 4.42558594 10.73007812 3.41367187 10.81640625 2.37109375 C10.87699219 1.58863281 10.93757812 0.80617188 11 0 C11.99 0 12.98 0 14 0 C14 5.61 14 11.22 14 17 C13.01 17 12.02 17 11 17 C11 16.34 11 15.68 11 15 C10.01 15.66 9.02 16.32 8 17 C5.26920583 17.34134927 3.69078313 17.44958332 1.35546875 15.9296875 C-0.72579181 12.96674019 -0.28549149 10.37285745 -0.1875 6.8125 C-0.16042969 5.54019531 -0.13335938 4.26789062 -0.10546875 2.95703125 C-0.07066406 1.98121094 -0.03585937 1.00539063 0 0 Z " fill="#AFB1B4" transform="translate(590,560)"/>
<path d="M0 0 C0.66 0.33 1.32 0.66 2 1 C2.625 3.0625 2.625 3.0625 3 5 C2.01 5.33 1.02 5.66 0 6 C1.83827868 9.15133488 3.75972706 12.11964908 6 15 C5.01 16.485 5.01 16.485 4 18 C0.97009905 16.28032649 -1.76327296 14.70761694 -4 12 C-4 11.34 -4 10.68 -4 10 C-6.31 10.66 -8.62 11.32 -11 12 C-11 11.34 -11 10.68 -11 10 C-10.34 10 -9.68 10 -9 10 C-9.33 8.68 -9.66 7.36 -10 6 C-9.36191406 5.65066406 -8.72382813 5.30132813 -8.06640625 4.94140625 C-7.24011719 4.48636719 -6.41382813 4.03132812 -5.5625 3.5625 C-4.73878906 3.11003906 -3.91507812 2.65757812 -3.06640625 2.19140625 C-1.07691202 1.16337603 -1.07691202 1.16337603 0 0 Z " fill="#F1F1E5" transform="translate(294,540)"/>
<path d="M0 0 C3.5625 0.25 3.5625 0.25 6.5625 2.25 C6.5625 2.91 6.5625 3.57 6.5625 4.25 C3.9225 3.92 1.2825 3.59 -1.4375 3.25 C-1.7675 4.24 -2.0975 5.23 -2.4375 6.25 C-1.53 6.353125 -0.6225 6.45625 0.3125 6.5625 C3.58211575 7.25414949 5.09967737 8.07134921 7.5625 10.25 C7.25 12.625 7.25 12.625 6.5625 15.25 C3.07381349 17.57579101 1.66531481 17.66865457 -2.4375 17.25 C-4.8125 15.875 -4.8125 15.875 -6.4375 14.25 C-6.4375 13.59 -6.4375 12.93 -6.4375 12.25 C-3.1375 12.58 0.1625 12.91 3.5625 13.25 C3.5625 12.59 3.5625 11.93 3.5625 11.25 C-0.8925 9.27 -0.8925 9.27 -5.4375 7.25 C-5.5625 4.875 -5.5625 4.875 -5.4375 2.25 C-3.4375 0.25 -3.4375 0.25 0 0 Z " fill="#A8A8A9" transform="translate(496.4375,559.75)"/>
<path d="M0 0 C9.625 -0.25 9.625 -0.25 13 2 C13.29296875 5.2578125 13.29296875 5.2578125 13.1875 9.125 C13.16042969 10.40632812 13.13335938 11.68765625 13.10546875 13.0078125 C13.07066406 13.99523437 13.03585937 14.98265625 13 16 C12.01 16 11.02 16 10 16 C10 11.71 10 7.42 10 3 C8.02 3.33 6.04 3.66 4 4 C3.67 7.96 3.34 11.92 3 16 C2.01 16 1.02 16 0 16 C0 10.72 0 5.44 0 0 Z " fill="#A5A7A9" transform="translate(648,560)"/>
<path d="M0 0 C2.52978658 0.38215925 3.70854198 0.66425968 5.4140625 2.62890625 C6.01347656 3.58603516 6.01347656 3.58603516 6.625 4.5625 C7.78640808 6.46605303 7.78640808 6.46605303 9 8 C9.66 8 10.32 8 11 8 C12.3640201 5.98323101 13.50432746 3.87933349 14.68359375 1.75 C15.11800781 1.1725 15.55242188 0.595 16 0 C16.99 0 17.98 0 19 0 C17.8694871 3.28876481 16.40062095 5.91312002 14.4375 8.75 C11.65347237 13.04067788 11.12845331 16.95528821 11 22 C10.34 22 9.68 22 9 22 C9 20.741875 9 19.48375 9 18.1875 C8.41843155 12.37181551 5.27965631 8.73960568 1.71484375 4.28515625 C0 2 0 2 0 0 Z " fill="#989A9B" transform="translate(553,554)"/>
<path d="M0 0 C1.65 0 3.3 0 5 0 C5.67057887 1.7902061 6.3363469 3.58221489 7 5.375 C7.556875 6.87160156 7.556875 6.87160156 8.125 8.3984375 C9 11 9 11 9 13 C8.01 13 7.02 13 6 13 C5.34 11.02 4.68 9.04 4 7 C3.67 11.95 3.34 16.9 3 22 C2.01 22 1.02 22 0 22 C0 14.74 0 7.48 0 0 Z " fill="#B0B1B3" transform="translate(447,554)"/>
<path d="M0 0 C2.5 0.25 2.5 0.25 4.5 2.25 C4.765625 4.125 4.765625 4.125 4.75 6.25 C4.75515625 6.95125 4.7603125 7.6525 4.765625 8.375 C4.5 10.25 4.5 10.25 2.5 12.25 C0 12.5 0 12.5 -2.5 12.25 C-4.5 10.25 -4.5 10.25 -4.765625 8.375 C-4.76046875 7.67375 -4.7553125 6.9725 -4.75 6.25 C-4.75515625 5.54875 -4.7603125 4.8475 -4.765625 4.125 C-4.31971142 0.97737476 -3.03899237 0.30389924 0 0 Z " fill="#F9F9F9" transform="translate(578.5,561.75)"/>
<path d="M0 0 C2.5 0.25 2.5 0.25 4.5 2.25 C4.765625 4.125 4.765625 4.125 4.75 6.25 C4.75515625 6.95125 4.7603125 7.6525 4.765625 8.375 C4.5 10.25 4.5 10.25 2.5 12.25 C0 12.5 0 12.5 -2.5 12.25 C-4.5 10.25 -4.5 10.25 -4.765625 8.375 C-4.76046875 7.67375 -4.7553125 6.9725 -4.75 6.25 C-4.75515625 5.54875 -4.7603125 4.8475 -4.765625 4.125 C-4.31971142 0.97737476 -3.03899237 0.30389924 0 0 Z " fill="#FBFAFA" transform="translate(672.5,561.75)"/>
<path d="M0 0 C3.0625 0.1875 3.0625 0.1875 5.0625 2.1875 C5.3125 5.6875 5.3125 5.6875 5.0625 9.1875 C3.0625 11.1875 3.0625 11.1875 0.5625 11.4375 C-1.9375 11.1875 -1.9375 11.1875 -3.9375 9.1875 C-4.26502234 6.47295044 -4.0683425 3.93519241 -3.9375 1.1875 C-2.9375 0.1875 -2.9375 0.1875 0 0 Z " fill="#FBFBF9" transform="translate(739.9375,562.8125)"/>
<path d="M0 0 C0.99 0 1.98 0 3 0 C3 1.65 3 3.3 3 5 C3.99 5 4.98 5 6 5 C6 5.66 6 6.32 6 7 C5.01 7 4.02 7 3 7 C3 10.96 3 14.92 3 19 C4.32 19 5.64 19 7 19 C7 19.66 7 20.32 7 21 C5.02 21 3.04 21 1 21 C-0.32229189 18.35541621 -0.09677194 16.32238699 -0.0625 13.375 C-0.05347656 12.37210938 -0.04445313 11.36921875 -0.03515625 10.3359375 C-0.01775391 9.17964844 -0.01775391 9.17964844 0 8 C-0.99 8 -1.98 8 -3 8 C-3 7.01 -3 6.02 -3 5 C-2.01 5 -1.02 5 0 5 C0 3.35 0 1.7 0 0 Z " fill="#AEAEAE" transform="translate(508,555)"/>
<path d="M0 0 C3.625 0.375 3.625 0.375 7 1 C7.09765625 7.15234375 7.09765625 7.15234375 7 9 C6 10 6 10 3.0625 10.1875 C0 10 0 10 -2 8 C-2.25 5 -2.25 5 -2 2 C-1.34 1.34 -0.68 0.68 0 0 Z " fill="#FBFAF8" transform="translate(756,563)"/>
<path d="M0 0 C0.33 0.99 0.66 1.98 1 3 C3.64 3 6.28 3 9 3 C8.67 3.66 8.34 4.32 8 5 C4.9375 5.625 4.9375 5.625 2 6 C2.33 6.99 2.66 7.98 3 9 C6.3 8.67 9.6 8.34 13 8 C11 12 11 12 9 13 C4.94736402 13.54035146 3.46269769 13.34199395 0.125 10.875 C-2 8 -2 8 -2.4375 4.8125 C-2 2 -2 2 0 0 Z " fill="#A4A4A2" transform="translate(772,564)"/>
<path d="M0 0 C0.66 0.33 1.32 0.66 2 1 C-3 6 -8 11 -13 16 C-13 15.01 -13 14.02 -13 13 C-13.66 13 -14.32 13 -15 13 C-15 13.66 -15 14.32 -15 15 C-17.652864 18.19904189 -19.22805414 19.81065479 -23.3125 20.8125 C-24.199375 20.874375 -25.08625 20.93625 -26 21 C-22.01554918 16.77430313 -17.6771322 13.36768459 -13 9.9375 C-11.60362681 8.90567811 -10.20778129 7.87314169 -8.8125 6.83984375 C-8.15894531 6.35628418 -7.50539063 5.87272461 -6.83203125 5.37451172 C-4.51259302 3.63431486 -2.24819095 1.83104615 0 0 Z " fill="#92D147" transform="translate(439,445)"/>
<path d="M0 0 C3.39914975 1.13304992 4.05254451 2.12518475 6 5 C4.63088196 8.1489715 3.1247864 10.0478487 0.5 12.25 C-0.1084375 12.77078125 -0.716875 13.2915625 -1.34375 13.828125 C-3 15 -3 15 -5 15 C-4.37321829 11.33827525 -3.35548154 8.1181005 -1.9375 4.6875 C-1.39416016 3.36298828 -1.39416016 3.36298828 -0.83984375 2.01171875 C-0.56269531 1.34785156 -0.28554688 0.68398438 0 0 Z " fill="#8EC635" transform="translate(402,457)"/>
<path d="M0 0 C0.33 0.99 0.66 1.98 1 3 C-6.66666667 10.66666667 -14.33333333 18.33333333 -22 26 C-22.33 25.01 -22.66 24.02 -23 23 C-15.41 15.41 -7.82 7.82 0 0 Z " fill="#9BCE4D" transform="translate(389,487)"/>
<path d="M0 0 C0.66 0 1.32 0 2 0 C2 0.66 2 1.32 2 2 C5.465 1.505 5.465 1.505 9 1 C8.40546697 10.59453303 8.40546697 10.59453303 5 14 C4.18639005 12.70903219 3.37414954 11.41720125 2.5625 10.125 C2.11003906 9.40570313 1.65757812 8.68640625 1.19140625 7.9453125 C-1.05658199 4.27482679 -1.05658199 4.27482679 -0.5625 1.875 C-0.376875 1.25625 -0.19125 0.6375 0 0 Z " fill="#E8EFF4" transform="translate(377,425)"/>
<path d="M0 0 C0.99 0 1.98 0 3 0 C3 7.26 3 14.52 3 22 C2.01 22 1.02 22 0 22 C0 14.74 0 7.48 0 0 Z " fill="#A1A2A3" transform="translate(708,554)"/>
<path d="M0 0 C2.97 0 5.94 0 9 0 C9 0.99 9 1.98 9 3 C7.35 3.66 5.7 4.32 4 5 C3.67 8.63 3.34 12.26 3 16 C2.01 16 1.02 16 0 16 C0 10.72 0 5.44 0 0 Z " fill="#B1B3B5" transform="translate(535,560)"/>
<path d="M0 0 C1.32 1.32 2.64 2.64 4 4 C0.4593273 8.69578578 -2.03944004 11.64532728 -8 13 C-8.99 13.495 -8.99 13.495 -10 14 C-8.51872621 10.74715253 -6.65319465 8.11102873 -4.4375 5.3125 C-3.81746094 4.52488281 -3.19742188 3.73726563 -2.55859375 2.92578125 C-1 1 -1 1 0 0 Z " fill="#F1F5EB" transform="translate(244,491)"/>
<path d="M0 0 C1.32 0.33 2.64 0.66 4 1 C6.18703385 0.62092718 6.18703385 0.62092718 8 0 C8 0.66 8 1.32 8 2 C7.35546875 2.41894531 6.7109375 2.83789062 6.046875 3.26953125 C3.74618145 4.86199598 3.74618145 4.86199598 3.390625 7.69921875 C3.34421875 8.68535156 3.2978125 9.67148437 3.25 10.6875 C3.19328125 11.68136719 3.1365625 12.67523437 3.078125 13.69921875 C3.05234375 14.45847656 3.0265625 15.21773437 3 16 C2.01 16 1.02 16 0 16 C0 10.72 0 5.44 0 0 Z " fill="#AFB2B4" transform="translate(608,560)"/>
<path d="M0 0 C2.8125 -0.5 2.8125 -0.5 6 0 C8.875 2.25 8.875 2.25 11 5 C11 6.32 11 7.64 11 9 C8.03 9 5.06 9 2 9 C2 8.34 2 7.68 2 7 C3.98 7 5.96 7 8 7 C7.67 5.68 7.34 4.36 7 3 C6.071875 3 5.14375 3 4.1875 3 C2.125 3 0.0625 3 -2 3 C-1.34 2.01 -0.68 1.02 0 0 Z " fill="#A3A5A8" transform="translate(521,560)"/>
<path d="M0 0 C0 3 0 3 -2 5.0625 C-2.66 5.701875 -3.32 6.34125 -4 7 C-4 7.66 -4 8.32 -4 9 C-3.34 9.66 -2.68 10.32 -2 11 C-4.31 13.31 -6.62 15.62 -9 18 C-9.66 17.34 -10.32 16.68 -11 16 C-8.52890551 9.23134988 -5.42564948 4.73982301 0 0 Z " fill="#EFF3EB" transform="translate(366,503)"/>
<path d="M0 0 C0.66 0 1.32 0 2 0 C2 1.32 2 2.64 2 4 C2.66 4 3.32 4 4 4 C3.27734375 5.94140625 3.27734375 5.94140625 2 8 C-0.05859375 8.71484375 -0.05859375 8.71484375 -2.4375 8.9375 C-3.21996094 9.02902344 -4.00242187 9.12054687 -4.80859375 9.21484375 C-7 9 -7 9 -8.78515625 7.62890625 C-10 6 -10 6 -10 4 C-6.7 4.33 -3.4 4.66 0 5 C0 3.35 0 1.7 0 0 Z " fill="#B2B3B3" transform="translate(762,574)"/>
<path d="M0 0 C3.63 0 7.26 0 11 0 C11 0.99 11 1.98 11 3 C7.88401212 4.84651134 5.61754103 5.38079379 2 5 C1.34 4.34 0.68 3.68 0 3 C0 2.01 0 1.02 0 0 Z " fill="#F0F0F0" transform="translate(520,569)"/>
<path d="M0 0 C0.33 1.32 0.66 2.64 1 4 C-1.38776858 6.20409407 -2.73156457 6.96644557 -6 7.375 C-9.28779421 6.96402572 -10.67565497 6.32434503 -13 4 C-13 3.34 -13 2.68 -13 2 C-11.96939453 2.16048828 -11.96939453 2.16048828 -10.91796875 2.32421875 C-9.56638672 2.50404297 -9.56638672 2.50404297 -8.1875 2.6875 C-7.29417969 2.81511719 -6.40085937 2.94273437 -5.48046875 3.07421875 C-2.92975791 3.24891882 -2.92975791 3.24891882 -1.17578125 1.51953125 C-0.78777344 1.01808594 -0.39976562 0.51664063 0 0 Z " fill="#AEAFB0" transform="translate(503,570)"/>
<path d="M0 0 C3.63 0 7.26 0 11 0 C10 3 10 3 7 5 C3.8125 5.125 3.8125 5.125 1 5 C0.67 3.35 0.34 1.7 0 0 Z " fill="#F0EEEE" transform="translate(718,569)"/>
<path d="M0 0 C1.51400391 0.01740234 1.51400391 0.01740234 3.05859375 0.03515625 C4.07050781 0.04417969 5.08242188 0.05320312 6.125 0.0625 C7.29869141 0.07990234 7.29869141 0.07990234 8.49609375 0.09765625 C7.49609375 3.09765625 7.49609375 3.09765625 5.74609375 4.28515625 C3.19648801 5.20584721 1.18686294 5.24714343 -1.50390625 5.09765625 C-2.16390625 3.77765625 -2.82390625 2.45765625 -3.50390625 1.09765625 C-2.50390625 0.09765625 -2.50390625 0.09765625 0 0 Z " fill="#F0EFEE" transform="translate(776.50390625,568.90234375)"/>
<path d="M0 0 C0.99 0 1.98 0 3 0 C1.90301833 5.69139902 0.45946923 10.74567937 -2 16 C-2.99 16 -3.98 16 -5 16 C-5 15.01 -5 14.02 -5 13 C-4.01 13 -3.02 13 -2 13 C-2.061875 11.453125 -2.061875 11.453125 -2.125 9.875 C-2.00424851 6.13170373 -1.35127982 3.46265453 0 0 Z " fill="#A3A6A7" transform="translate(702,560)"/>
<path d="M0 0 C0.99 0 1.98 0 3 0 C3 4.95 3 9.9 3 15 C2.01 14.67 1.02 14.34 0 14 C0 9.38 0 4.76 0 0 Z " fill="#A2A5A7" transform="translate(590,560)"/>
<path d="M0 0 C0.33 0.99 0.66 1.98 1 3 C1.99 3.33 2.98 3.66 4 4 C5.60546875 6.28515625 5.60546875 6.28515625 7.1875 9.0625 C7.71730469 9.98160156 8.24710938 10.90070312 8.79296875 11.84765625 C9.19128906 12.55792969 9.58960938 13.26820313 10 14 C7.30730091 13.62698541 6.21610375 13.2398855 4.3671875 11.1875 C3.62855469 10.1046875 3.62855469 10.1046875 2.875 9 C0.89926624 5.97716106 0.89926624 5.97716106 -2 4 C-1.34 2.68 -0.68 1.36 0 0 Z " fill="#A0A4A4" transform="translate(635,562)"/>
<path d="M0 0 C0.37125 0.495 0.7425 0.99 1.125 1.5 C3.79311624 3.63449299 5.66083177 3.27258516 9 3 C11.26566343 2.56058477 11.26566343 2.56058477 13 2 C11.25 5.875 11.25 5.875 9 7 C6.125 7.3125 6.125 7.3125 3 7 C0.625 5 0.625 5 -1 3 C-0.67 2.01 -0.34 1.02 0 0 Z " fill="#A7A9A9" transform="translate(716,570)"/>
<path d="M0 0 C2 2 2 2 2.125 5.625 C2.08375 6.73875 2.0425 7.8525 2 9 C1.01 9.495 1.01 9.495 0 10 C-0.66 7.69 -1.32 5.38 -2 3 C-4.64 3.33 -7.28 3.66 -10 4 C-9.67 3.01 -9.34 2.02 -9 1 C-5.98675805 -0.50662097 -3.31713623 -0.17770373 0 0 Z " fill="#A4A6A7" transform="translate(484,560)"/>
<path d="M0 0 C2.8125 -0.3125 2.8125 -0.3125 6 0 C8.31141604 2.85074644 9 4.3139451 9 8 C5.7 8 2.4 8 -1 8 C-1 7.34 -1 6.68 -1 6 C1.31 6 3.62 6 6 6 C4.11192137 3.30274481 2.80175356 1.86783571 0 0 Z " fill="#A5A5A6" transform="translate(721,561)"/>
<path d="M0 0 C-3 2 -3 2 -6 3 C-6 4.32 -6 5.64 -6 7 C-4.68 7.66 -3.36 8.32 -2 9 C-4.33294775 9.04241723 -6.66702567 9.04092937 -9 9 C-9.33 8.67 -9.66 8.34 -10 8 C-9.6875 4.5 -9.6875 4.5 -9 1 C-6.04335481 -0.4783226 -3.25770263 -0.06032783 0 0 Z " fill="#A7A9AA" transform="translate(483,567)"/>
<path d="M0 0 C2.00720923 0.28674418 4.0085944 0.61866701 6 1 C6.33 2.32 6.66 3.64 7 5 C4.03 5 1.06 5 -2 5 C-1 1 -1 1 0 0 Z " fill="#F1F0F1" transform="translate(522,562)"/>
<path d="M0 0 C0.99 0 1.98 0 3 0 C1.43358249 4.30764815 -0.68336156 8.06171464 -3 12 C-4.32 11.34 -5.64 10.68 -7 10 C-6.57847656 9.44570313 -6.15695312 8.89140625 -5.72265625 8.3203125 C-5.17480469 7.59585938 -4.62695312 6.87140625 -4.0625 6.125 C-3.51722656 5.40570312 -2.97195313 4.68640625 -2.41015625 3.9453125 C-0.96035376 2.05642921 -0.96035376 2.05642921 0 0 Z " fill="#AAABAC" transform="translate(569,554)"/>
<path d="M0 0 C1.67542976 0.28604898 3.34385343 0.61781233 5 1 C5.33 2.32 5.66 3.64 6 5 C3.03 5 0.06 5 -3 5 C-1 1 -1 1 0 0 Z " fill="#F0EFEF" transform="translate(776,562)"/>
<path d="M0 0 C0.33 0 0.66 0 1 0 C1 3.3 1 6.6 1 10 C1.66 10.33 2.32 10.66 3 11 C2.67 14.3 2.34 17.6 2 21 C1.34 21 0.68 21 0 21 C0 14.07 0 7.14 0 0 Z " fill="#A4A6A6" transform="translate(629,555)"/>
<path d="M0 0 C2.31 1.98 4.62 3.96 7 6 C6.34 7.32 5.68 8.64 5 10 C3.0625 9.25 3.0625 9.25 1 8 C-0.12877968 5.17805079 0 3.12179761 0 0 Z " fill="#FBF8EA" transform="translate(293,548)"/>
<path d="M0 0 C0.66 0 1.32 0 2 0 C2 3.63 2 7.26 2 11 C3.32 11 4.64 11 6 11 C6 11.66 6 12.32 6 13 C4.02 13 2.04 13 0 13 C0 8.71 0 4.42 0 0 Z " fill="#A4A5A5" transform="translate(509,563)"/>
<path d="M0 0 C1.98 0 3.96 0 6 0 C6.66 1.32 7.32 2.64 8 4 C4.7 4 1.4 4 -2 4 C-1.34 2.68 -0.68 1.36 0 0 Z " fill="#F3F2F2" transform="translate(719,563)"/>
<path d="M0 0 C1.98 0 3.96 0 6 0 C5.67 1.65 5.34 3.3 5 5 C3.02 5 1.04 5 -1 5 C-0.67 3.35 -0.34 1.7 0 0 Z " fill="#F9F9F9" transform="translate(477,569)"/>
<path d="M0 0 C1.670625 0.061875 1.670625 0.061875 3.375 0.125 C4.035 1.445 4.695 2.765 5.375 4.125 C4.1375 3.8775 2.9 3.63 1.625 3.375 C-0.54603023 3.02927779 -0.54603023 3.02927779 -2.625 3.125 C-5.15090848 4.89654652 -5.15090848 4.89654652 -6.625 7.125 C-5.84042384 2.15601765 -5.49387562 0.18944399 0 0 Z " fill="#9EA1A2" transform="translate(578.625,559.875)"/>
<path d="M0 0 C0.66 0 1.32 0 2 0 C2.226875 0.9075 2.45375 1.815 2.6875 2.75 C4.18127977 6.44888324 5.75400577 7.77905658 9 10 C3.63157895 10.35789474 3.63157895 10.35789474 1.125 8.9375 C-0.58196395 5.99772876 -0.18799766 3.32129197 0 0 Z " fill="#9F9F9E" transform="translate(733,566)"/>
<path d="M0 0 C3.5625 0.125 3.5625 0.125 5.5625 1.125 C5.2325 2.445 4.9025 3.765 4.5625 5.125 C3.9025 4.465 3.2425 3.805 2.5625 3.125 C-1.05504103 2.74420621 -3.32151212 3.27848866 -6.4375 5.125 C-4.02854478 0.14649254 -4.02854478 0.14649254 0 0 Z " fill="#A7A8A9" transform="translate(672.4375,559.875)"/>
<path d="M0 0 C4.95 1.98 4.95 1.98 10 4 C10 4.33 10 4.66 10 5 C7.8535247 4.88655624 5.70779408 4.75893655 3.5625 4.625 C2.36753906 4.55539062 1.17257812 4.48578125 -0.05859375 4.4140625 C-1.02925781 4.27742187 -1.99992187 4.14078125 -3 4 C-3.33 3.34 -3.66 2.68 -4 2 C-2.68 2 -1.36 2 0 2 C0 1.34 0 0.68 0 0 Z " fill="#225C8D" transform="translate(327,615)"/>
<path d="M0 0 C3 2 3 2 3.73046875 4.3828125 C3.88128906 5.28773438 4.03210938 6.19265625 4.1875 7.125 C4.34605469 8.03507813 4.50460937 8.94515625 4.66796875 9.8828125 C4.83232422 10.93082031 4.83232422 10.93082031 5 12 C1.125 10.25 1.125 10.25 0 8 C-0.13415472 5.3276379 -0.04318541 2.67749512 0 0 Z " fill="#AEAFAF" transform="translate(571,564)"/>
<path d="M0 0 C-1.32 1.65 -2.64 3.3 -4 5 C-4.66 4.67 -5.32 4.34 -6 4 C-8.60931266 4.89363605 -8.60931266 4.89363605 -11 6 C-7.6959847 0.24856597 -7.6959847 0.24856597 -4.375 -0.9375 C-2 -1 -2 -1 0 0 Z " fill="#E0E6ED" transform="translate(367,465)"/>
<path d="M0 0 C1.98 0 3.96 0 6 0 C5.50168276 3.68754757 4.89932357 5.60490662 2 8 C0.74335022 5.09399739 0 3.20395416 0 0 Z " fill="#305271" transform="translate(537,517)"/>
<path d="M0 0 C0.33 0 0.66 0 1 0 C1.33 3.3 1.66 6.6 2 10 C-0.97 9.67 -3.94 9.34 -7 9 C-5.68 8.34 -4.36 7.68 -3 7 C-1.89506665 5.30049572 -1.89506665 5.30049572 -1.25 3.375 C-0.8375 2.26125 -0.425 1.1475 0 0 Z " fill="#A7A7A7" transform="translate(746,566)"/>
<path d="M0 0 C2.88575819 0.39803561 3.82189513 0.79009069 5.75 3.0625 C6.1625 3.701875 6.575 4.34125 7 5 C6.34 6.32 5.68 7.64 5 9 C4.16094435 7.87926138 3.32892169 6.75325453 2.5 5.625 C2.0359375 4.99851562 1.571875 4.37203125 1.09375 3.7265625 C0 2 0 2 0 0 Z " fill="#A9AAAB" transform="translate(553,554)"/>
<path d="M0 0 C-1.75 3.875 -1.75 3.875 -4 5 C-5.99960012 5.039992 -8.00047242 5.04346799 -10 5 C-7.31084421 0.96626631 -4.80874906 0 0 0 Z " fill="#B1B3B3" transform="translate(785,572)"/>
<path d="M0 0 C5.28 0 10.56 0 16 0 C16 0.33 16 0.66 16 1 C15.14535156 1.04898438 14.29070312 1.09796875 13.41015625 1.1484375 C12.30542969 1.22320313 11.20070313 1.29796875 10.0625 1.375 C8.96035156 1.44460938 7.85820312 1.51421875 6.72265625 1.5859375 C5.37494141 1.79089844 5.37494141 1.79089844 4 2 C3.67 2.66 3.34 3.32 3 4 C2.34 4 1.68 4 1 4 C0.67 2.68 0.34 1.36 0 0 Z " fill="#4C6F86" transform="translate(317,594)"/>
<path d="M0 0 C0.66 0.33 1.32 0.66 2 1 C2 3.64 2 6.28 2 9 C1.01 9 0.02 9 -1 9 C-1.09765625 2.84765625 -1.09765625 2.84765625 -1 1 C-0.67 0.67 -0.34 0.34 0 0 Z " fill="#A8AAAC" transform="translate(584,563)"/>
<path d="M0 0 C-1.28519565 2.86697492 -2.57129254 4.97607712 -5 7 C-5.66 7 -6.32 7 -7 7 C-6.22006468 2.47637516 -4.81844319 0 0 0 Z " fill="#ABADAC" transform="translate(644,554)"/>
<path d="M0 0 C3.08089673 2.77280706 4.68775452 5.06326356 6 9 C3.5625 8.625 3.5625 8.625 1 8 C-0.35439668 5.29120665 -0.06501451 2.99066732 0 0 Z " fill="#4ABCEA" transform="translate(394,403)"/>
<path d="M0 0 C-1.75 3.875 -1.75 3.875 -4 5 C-5.99960012 5.039992 -8.00047242 5.04346799 -10 5 C-7.48732962 1.23099443 -4.57078644 0 0 0 Z " fill="#B3B5B8" transform="translate(531,572)"/>
<path d="M0 0 C0.144375 0.598125 0.28875 1.19625 0.4375 1.8125 C0.8872439 3.56150404 1.42892341 5.28677023 2 7 C0.625 8.5 0.625 8.5 -1 10 C-1.66 10 -2.32 10 -3 10 C-2.39009109 6.44219804 -1.4216319 3.3171411 0 0 Z " fill="#9FD44E" transform="translate(400,462)"/>
<path d="M0 0 C3.39914975 1.13304992 4.05254451 2.12518475 6 5 C5.34 6.32 4.68 7.64 4 9 C3.67 9 3.34 9 3 9 C2.67 7.35 2.34 5.7 2 4 C1.01 4 0.02 4 -1 4 C-0.67 2.68 -0.34 1.36 0 0 Z " fill="#98CE4F" transform="translate(402,457)"/>
<path d="M0 0 C0.66 0.33 1.32 0.66 2 1 C-0.97 3.64 -3.94 6.28 -7 9 C-7.99 8.34 -8.98 7.68 -10 7 C-6.7 4.69 -3.4 2.38 0 0 Z " fill="#2C9BD1" transform="translate(320,527)"/>
<path d="M0 0 C0.33 0 0.66 0 1 0 C0.67 2.64 0.34 5.28 0 8 C-1.32 8.33 -2.64 8.66 -4 9 C-4 8.01 -4 7.02 -4 6 C-3.01 6 -2.02 6 -1 6 C-1.020625 5.195625 -1.04125 4.39125 -1.0625 3.5625 C-1 1 -1 1 0 0 Z " fill="#9CA0A1" transform="translate(701,567)"/>
<path d="M0 0 C0.66 0 1.32 0 2 0 C0.70700306 2.88437779 -0.65941363 4.87219421 -3 7 C-3.99 6.67 -4.98 6.34 -6 6 C-4 4 -2 2 0 0 Z " fill="#36A2D5" transform="translate(326,540)"/>
<path d="M0 0 C2.31 0 4.62 0 7 0 C6.360625 0.2475 5.72125 0.495 5.0625 0.75 C2.81258459 1.81562433 2.81258459 1.81562433 2.25 4.125 C2.1675 4.74375 2.085 5.3625 2 6 C0 3 0 3 0 0 Z " fill="#375872" transform="translate(550,516)"/>
<path d="M0 0 C0 3.19610552 -0.54671542 4.41717626 -2 7.1875 C-2.37125 7.90292969 -2.7425 8.61835938 -3.125 9.35546875 C-3.558125 10.16951172 -3.558125 10.16951172 -4 11 C-4.33 10.34 -4.66 9.68 -5 9 C-5.66 8.67 -6.32 8.34 -7 8 C-4.69 5.36 -2.38 2.72 0 0 Z " fill="#496988" transform="translate(251,490)"/>
<path d="M0 0 C1.9375 0.375 1.9375 0.375 4 1 C4.33 1.66 4.66 2.32 5 3 C7.01669827 4.13350534 7.01669827 4.13350534 9 5 C3.5 5.36666667 3.5 5.36666667 1.125 3.625 C0 2 0 2 0 0 Z " fill="#BBBCBC" transform="translate(752,578)"/>
<path d="M0 0 C0.33 0.99 0.66 1.98 1 3 C0.00390625 4.82421875 0.00390625 4.82421875 -1.4375 6.6875 C-1.91058594 7.31011719 -2.38367188 7.93273437 -2.87109375 8.57421875 C-3.24363281 9.04472656 -3.61617188 9.51523437 -4 10 C-4.33 9.01 -4.66 8.02 -5 7 C-4.00390625 5.17578125 -4.00390625 5.17578125 -2.5625 3.3125 C-2.08941406 2.68988281 -1.61632812 2.06726563 -1.12890625 1.42578125 C-0.75636719 0.95527344 -0.38382812 0.48476563 0 0 Z " fill="#93CA4D" transform="translate(334,572)"/>
<path d="M0 0 C0.33 1.32 0.66 2.64 1 4 C-2 6 -2 6 -5.1875 5.625 C-6.115625 5.41875 -7.04375 5.2125 -8 5 C-8 4.67 -8 4.34 -8 4 C-7.236875 3.896875 -6.47375 3.79375 -5.6875 3.6875 C-2.82940576 2.95635961 -1.84257115 2.23048087 0 0 Z " fill="#B7B7B7" transform="translate(503,570)"/>
<path d="M0 0 C1.5 1.125 1.5 1.125 3 3 C3.1875 6.1875 3.1875 6.1875 3 9 C2.34 7.68 1.68 6.36 1 5 C0.34 5.99 -0.32 6.98 -1 8 C-0.67 5.36 -0.34 2.72 0 0 Z " fill="#C4C4C5" transform="translate(678,562)"/>
<path d="M0 0 C0.66 0 1.32 0 2 0 C2.33 0.99 2.66 1.98 3 3 C5.31 3.33 7.62 3.66 10 4 C10 4.33 10 4.66 10 5 C6.7 5 3.4 5 0 5 C0 3.35 0 1.7 0 0 Z " fill="#1DA1D9" transform="translate(677,527)"/>
<path d="M0 0 C0.66 0.33 1.32 0.66 2 1 C-0.31 3.31 -2.62 5.62 -5 8 C-5.99 7.34 -6.98 6.68 -8 6 C-5.36 4.02 -2.72 2.04 0 0 Z " fill="#A4D974" transform="translate(439,445)"/>
<path d="M0 0 C2.02045442 0.60183749 4.02111039 1.27306096 6 2 C6.33 2.66 6.66 3.32 7 4 C4.36 3.67 1.72 3.34 -1 3 C-0.67 2.01 -0.34 1.02 0 0 Z " fill="#4CB5DF" transform="translate(317,615)"/>
<path d="M0 0 C2.99332739 0.9977758 3.94766315 1.7522025 6 4 C5.67 4.66 5.34 5.32 5 6 C3.68 5.67 2.36 5.34 1 5 C0.67 3.35 0.34 1.7 0 0 Z " fill="#A0A2A2" transform="translate(559,561)"/>
<path d="M0 0 C0.33 0.99 0.66 1.98 1 3 C-1.92879371 2.37240135 -4.36095629 1.41377341 -7 0 C-4.3333581 -1.33332095 -2.83319697 -0.67102033 0 0 Z " fill="#A2A3A4" transform="translate(502,561)"/>
</svg>
